<?xml version="1.0" encoding="iso-8859-1"?>
<!-- Uploaded to: SVG Repo, www.svgrepo.com, Generator: SVG Repo Mixer Tools -->
<!DOCTYPE svg PUBLIC "-//W3C//DTD SVG 1.1//EN" "http://www.w3.org/Graphics/SVG/1.1/DTD/svg11.dtd">
<svg fill="#000000" height="800px" width="800px" version="1.1" id="Capa_1" xmlns="http://www.w3.org/2000/svg" xmlns:xlink="http://www.w3.org/1999/xlink" 
	 viewBox="0 0 453.766 453.766" xml:space="preserve">
<g>
	<circle cx="209.905" cy="122.743" r="5.979"/>
	<path d="M237.021,123.793c-9.518,0-17.26,7.743-17.26,17.26s7.743,17.26,17.26,17.26c9.517,0,17.26-7.743,17.26-17.26
		S246.537,123.793,237.021,123.793z M237.021,153.313c-6.761,0-12.26-5.5-12.26-12.26s5.5-12.26,12.26-12.26
		c6.76,0,12.26,5.5,12.26,12.26S243.78,153.313,237.021,153.313z"/>
	<path d="M265.967,157.643h57.184v-33.179h-57.184V157.643z M313.91,129.464h4.24v23.179h-4.24V129.464z M302.676,129.464h6.234
		v23.179h-6.234V129.464z M291.44,129.464h6.235v23.179h-6.235V129.464z M280.206,129.464h6.234v23.179h-6.234V129.464z
		 M270.967,129.464h4.239v23.179h-4.239V129.464z"/>
	<path d="M396.64,118.985h-57.547c-3.705,0-6.719,3.014-6.719,6.719v40.438c0,3.705,3.014,6.719,6.719,6.719h57.547
		c3.705,0,6.719-3.014,6.719-6.719v-40.438C403.358,121.999,400.345,118.985,396.64,118.985z M398.358,166.141
		c0,0.947-0.771,1.719-1.719,1.719h-57.547c-0.947,0-1.719-0.771-1.719-1.719v-40.438c0-0.947,0.771-1.719,1.719-1.719h57.547
		c0.947,0,1.719,0.771,1.719,1.719V166.141z"/>
	<path d="M353.951,154.946h27.831v-18.047h-27.831V154.946z M358.951,141.899h17.831v8.047h-17.831V141.899z"/>
	<path d="M261.711,327.366c38.501,0,69.824-31.323,69.824-69.824s-31.323-69.824-69.824-69.824s-69.824,31.323-69.824,69.824
		S223.21,327.366,261.711,327.366z M261.711,192.717c35.744,0,64.824,29.08,64.824,64.824s-29.08,64.824-64.824,64.824
		s-64.824-29.08-64.824-64.824S225.967,192.717,261.711,192.717z"/>
	<path d="M261.711,308.102c27.879,0,50.561-22.682,50.561-50.561s-22.682-50.561-50.561-50.561s-50.56,22.682-50.56,50.561
		S233.832,308.102,261.711,308.102z M261.711,211.981c25.122,0,45.561,20.438,45.561,45.561s-20.438,45.561-45.561,45.561
		s-45.56-20.438-45.56-45.561S236.589,211.981,261.711,211.981z"/>
	<path d="M261.711,222.401c6.794,0,13.385,1.941,19.061,5.613c0.42,0.271,0.891,0.401,1.356,0.401c0.819,0,1.622-0.402,2.101-1.142
		c0.75-1.159,0.419-2.707-0.74-3.457c-6.487-4.197-14.018-6.416-21.777-6.416c-1.381,0-2.5,1.119-2.5,2.5
		S260.33,222.401,261.711,222.401z"/>
	<path d="M281.267,286.743c-1.147,0.77-1.453,2.322-0.684,3.469c0.482,0.72,1.273,1.107,2.078,1.107
		c0.479,0,0.964-0.137,1.391-0.424c11.146-7.479,17.8-19.948,17.8-33.354c0-6.063-1.317-11.888-3.916-17.314
		c-0.597-1.244-2.087-1.773-3.335-1.175c-1.245,0.597-1.771,2.089-1.175,3.335c2.273,4.747,3.426,9.846,3.426,15.154
		C296.852,269.278,291.025,280.194,281.267,286.743z"/>
	<path d="M444.664,196.348c-1.476,0-2.867,0.361-4.102,0.988v-73.458h-26.309v-17.938H190.953v17.938h-5.511v-17.938h-71.32v17.938
		h-7.177v-16.681H95.529v-3.134c0-3.224-2.623-5.847-5.847-5.847H78.98c-3.224,0-5.847,2.623-5.847,5.847v3.134H61.718v16.681
		H13.203v73.458c-1.234-0.627-2.625-0.988-4.102-0.988c-5.019,0-9.101,4.083-9.101,9.102s4.083,9.101,9.101,9.101
		c1.476,0,2.867-0.361,4.102-0.987v141.986h427.36V213.563c1.234,0.626,2.625,0.987,4.102,0.987c5.019,0,9.102-4.082,9.102-9.101
		S449.683,196.348,444.664,196.348z M9.101,209.55C6.84,209.55,5,207.71,5,205.45c0-2.262,1.84-4.102,4.101-4.102
		c2.262,0,4.102,1.84,4.102,4.102C13.203,207.71,11.363,209.55,9.101,209.55z M119.122,110.939h61.32v12.938h-61.32V110.939z
		 M78.134,104.063c0-0.467,0.38-0.847,0.847-0.847h10.702c0.467,0,0.847,0.38,0.847,0.847v3.134H78.134V104.063z M66.718,112.197
		h35.227v11.681H66.718V112.197z M18.203,190.476h185.998c-12.551,10.778-22.053,25.01-27.018,41.208
		c-3.156-2.961-7.356-4.687-11.8-4.687c-9.52,0-17.265,7.739-17.265,17.253c0,9.52,7.745,17.265,17.265,17.265
		c2.826,0,5.537-0.683,7.964-1.954c0.642,28.5,14.842,53.71,36.389,69.427H18.203V190.476z M261.711,174.152
		c45.981,0,83.39,37.408,83.39,83.39s-37.408,83.39-83.39,83.39c-45.981,0-83.39-37.408-83.39-83.39S215.73,174.152,261.711,174.152
		z M175.603,237.547c-1.197,5.154-1.937,10.481-2.185,15.935c-2.221,1.956-5.037,3.032-8.035,3.032
		c-6.763,0-12.265-5.502-12.265-12.265c0-6.756,5.502-12.253,12.265-12.253C169.518,231.997,173.343,234.112,175.603,237.547z
		 M435.563,350.549H18.203v-16.562h199.182c13.039,7.59,28.183,11.943,44.327,11.943s31.288-4.354,44.327-11.943h129.525V350.549z
		 M435.563,328.988H313.686c21.302-15.539,35.42-40.356,36.358-68.458c1.824,0.643,3.751,0.985,5.72,0.985
		c9.514,0,17.254-7.739,17.254-17.253c0-2.934-0.74-5.697-2.036-8.119c0,0,2.925-28.437,2.925-29.215
		c0-6.964-5.666-12.63-12.63-12.63c-6.84,0-12.414,5.469-12.611,12.262l-4.468,19.233c-5.314-13.759-13.973-25.865-24.978-35.316
		h116.342V328.988z M361.278,219.557c2.393,0,4.624-0.681,6.533-1.841l-1.313,13.052c-2.949-2.354-6.677-3.771-10.734-3.771
		c-2.461,0-4.865,0.529-7.064,1.516l3.085-13.281C354.103,217.876,357.495,219.557,361.278,219.557z M353.648,206.927
		c0-4.207,3.423-7.63,7.63-7.63c4.001,0,7.148,3.11,7.602,7.018c0.131,1.125-0.146,2.221-0.146,2.221
		c-0.741,3.437-3.801,6.021-7.456,6.021C357.071,214.557,353.648,211.134,353.648,206.927z M355.765,231.997
		c6.757,0,12.254,5.502,12.254,12.265c0,6.756-5.497,12.253-12.254,12.253c-2.005,0-3.95-0.492-5.699-1.417
		c-0.185-6.777-1.135-13.367-2.77-19.685C349.564,233.238,352.594,231.997,355.765,231.997z M435.563,185.476H312.838
		c-14.442-10.276-32.091-16.324-51.127-16.324s-36.684,6.048-51.127,16.324H18.203v-56.599h43.516h45.227h7.177h71.32h10.511
		v-17.938h213.301v17.938h26.309V185.476z M444.664,209.55c-2.262,0-4.102-1.84-4.102-4.101c0-2.262,1.84-4.102,4.102-4.102
		s4.102,1.84,4.102,4.102C448.766,207.71,446.926,209.55,444.664,209.55z"/>
	<path d="M130.974,160.034h37.616v-24.569h-37.616V160.034z M135.974,140.464h27.616v14.569h-27.616V140.464z"/>
</g>
</svg>