<svg xmlns="http://www.w3.org/2000/svg" xmlns:xlink="http://www.w3.org/1999/xlink" xml:space="preserve" viewBox="0 0 6000 3000"><defs><path id="a" d="M0 0h6000v3000H0z"/></defs><clipPath id="b"><use xlink:href="#a" overflow="visible"/></clipPath><path fill="#192129" d="M0 0h6000v3000H0z" clip-path="url(#b)"/><path fill="#192129" d="M3864-1H5156.932v-4.282c2.16 3.642 4.313 7.293 6.458 10.954 34.317 58.567 66.677 119.494 96.938 182.582 60.522 126.176 112.65 260.995 155.255 402.869 85.211 283.747 132.331 595.711 132.331 923.176s-47.12 639.429-132.331 923.176c-42.605 141.874-94.733 276.693-155.255 402.869a2549.407 2549.407 0 0 1-46.948 92.986 2474.96 2474.96 0 0 1-24.621 45.231 2468.247 2468.247 0 0 1-15.769 27.831V3001H2555.011v5.39a2430.833 2430.833 0 0 1-15.769-27.831 2478.277 2478.277 0 0 1-24.621-45.231 2549.407 2549.407 0 0 1-46.948-92.986c-60.522-126.176-112.65-260.995-155.256-402.869-85.211-283.747-132.33-595.711-132.33-923.176s47.12-639.429 132.33-923.176c42.605-141.874 94.733-276.693 155.256-402.869 30.261-63.088 62.621-124.015 96.938-182.582 2.145-3.66 4.297-7.312 6.457-10.954V-1H3864z" clip-path="url(#b)"/><path fill="#192129" d="M3843.908-1h1253.378v-3.343a2327.892 2327.892 0 0 1 22.386 37.401c33.693 57.502 65.465 117.321 95.175 179.262 59.422 123.882 110.603 256.25 152.433 395.544 83.661 278.588 129.924 584.88 129.924 906.391s-46.263 627.803-129.924 906.391c-41.831 139.294-93.011 271.662-152.433 395.544-29.71 61.941-61.482 121.76-95.175 179.262a2301.55 2301.55 0 0 1-6.34 10.754V3001H2574.484v5.207a2410.002 2410.002 0 0 1-6.34-10.754c-33.693-57.502-65.464-117.322-95.175-179.262-59.422-123.882-110.602-256.25-152.433-395.544-83.661-278.588-129.924-584.88-129.924-906.391s46.263-627.803 129.924-906.391c41.831-139.294 93.011-271.662 152.433-395.544 29.711-61.941 61.482-121.76 95.175-179.262a2343.624 2343.624 0 0 1 22.385-37.401V-1h1253.379z" clip-path="url(#b)"/><path fill="#192129" d="M3823.816-1h1214.147v-1.078a2262.005 2262.005 0 0 1 12.838 20.624 2287.631 2287.631 0 0 1 25.154 41.899c33.069 56.438 64.252 115.149 93.413 175.943 58.322 121.587 108.554 251.504 149.61 388.219 82.112 273.429 127.518 574.049 127.518 889.606s-45.406 616.177-127.518 889.606c-41.056 136.715-91.289 266.632-149.61 388.219-29.161 60.794-60.343 119.505-93.413 175.943a2306.67 2306.67 0 0 1-21.971 36.709V3001H2593.649v3.688a2242.391 2242.391 0 0 1-9.482-15.652 2306.67 2306.67 0 0 1-12.489-21.057c-33.069-56.438-64.252-115.149-93.413-175.943-58.321-121.587-108.554-251.504-149.61-388.219-82.112-273.429-127.518-574.049-127.518-889.606s45.406-616.177 127.518-889.606c41.056-136.715 91.289-266.632 149.61-388.219 29.161-60.794 60.344-119.505 93.413-175.943a2285.348 2285.348 0 0 1 25.153-41.899c4.25-6.911 8.53-13.786 12.838-20.624V-1h1214.147z" clip-path="url(#b)"/><path fill="#19212a" d="M3803.725-1h1172.029v-2.459c2.155 3.3 4.304 6.61 6.445 9.928a2219.9 2219.9 0 0 1 50.039 81.362c32.445 55.373 63.04 112.976 91.65 172.623 57.221 119.293 106.506 246.759 146.787 380.894 80.563 268.27 125.112 563.218 125.112 872.821s-44.549 604.551-125.112 872.821c-40.281 134.135-89.566 261.601-146.787 380.894-28.61 59.647-59.205 117.25-91.65 172.623a2238.477 2238.477 0 0 1-37.275 61.343v-.85H2612.486v.85a2190.803 2190.803 0 0 1-12.596-20.235 2247.485 2247.485 0 0 1-24.679-41.108c-32.445-55.373-63.04-112.976-91.65-172.623-57.221-119.293-106.506-246.759-146.787-380.894-80.563-268.27-125.112-563.218-125.112-872.821s44.549-604.551 125.112-872.821c40.281-134.135 89.566-261.601 146.787-380.894 28.611-59.647 59.205-117.25 91.65-172.623a2219.9 2219.9 0 0 1 50.039-81.362 2255.56 2255.56 0 0 1 6.445-9.928V-1h1172.03z" clip-path="url(#b)"/><path fill="#19222a" d="M3783.633-1h1130.282v-2.205a2102.682 2102.682 0 0 1 25.529 38.625 2176.689 2176.689 0 0 1 49.077 79.798c31.821 54.308 61.828 110.804 89.888 169.303 56.121 116.999 104.458 242.014 143.964 373.569 79.014 263.111 122.706 552.387 122.706 856.036s-43.692 592.925-122.706 856.036c-39.507 131.555-87.844 256.57-143.964 373.569-28.06 58.5-58.066 114.996-89.888 169.303a2176.689 2176.689 0 0 1-49.077 79.798 2324.93 2324.93 0 0 1-6.321 9.737V3001h-2298.98v1.569a2085.137 2085.137 0 0 1-6.321-9.737 2176.689 2176.689 0 0 1-49.077-79.798c-31.822-54.308-61.828-110.804-89.888-169.303-56.121-116.999-104.457-242.014-143.964-373.569-79.014-263.111-122.706-552.387-122.706-856.036s43.693-592.925 122.706-856.036c39.507-131.555 87.844-256.57 143.964-373.569 28.061-58.5 58.067-114.996 89.888-169.303a2176.689 2176.689 0 0 1 49.077-79.798 2106.099 2106.099 0 0 1 25.529-38.625V-1h1130.282z" clip-path="url(#b)"/><path fill="#1a222a" d="M3763.541-1h1088.934v-.336a2043.86 2043.86 0 0 1 44.214 65.708 2133.433 2133.433 0 0 1 48.115 78.233c31.197 53.243 60.615 108.631 88.125 165.984 55.02 114.705 102.409 237.268 141.142 366.244 77.464 257.952 120.3 541.556 120.3 839.251s-42.836 581.299-120.3 839.251c-38.732 128.976-86.122 251.539-141.142 366.245-27.51 57.352-56.928 112.74-88.125 165.983a2132.586 2132.586 0 0 1-48.115 78.233 2066.53 2066.53 0 0 1-25.028 37.868V3001h-2216.24v.663a2063.107 2063.107 0 0 1-25.028-37.868 2133.433 2133.433 0 0 1-48.115-78.233c-31.198-53.243-60.615-108.631-88.125-165.983-55.02-114.705-102.409-237.268-141.142-366.245-77.464-257.952-120.3-541.556-120.3-839.251s42.836-581.299 120.3-839.251c38.732-128.976 86.121-251.539 141.142-366.244 27.51-57.353 56.928-112.741 88.125-165.984a2132.586 2132.586 0 0 1 48.115-78.233 2066.53 2066.53 0 0 1 25.028-37.868 2010.277 2010.277 0 0 1 19.187-27.84V-1h1088.933z" clip-path="url(#b)"/><path fill="#1a222b" d="M3743.449-1H4785.002v-5.704a1942.024 1942.024 0 0 1 19.259 26.645c271.485 382.374 439.402 910.618 439.402 1494.1 0 291.741-41.979 569.673-117.895 822.466-37.957 126.396-84.398 246.509-138.318 358.919-26.96 56.206-55.79 110.486-86.363 162.664a2090.708 2090.708 0 0 1-47.153 76.668 2010.391 2010.391 0 0 1-46.497 68.895V3001H2679.461v2.653a2011.374 2011.374 0 0 1-9.473-13.543 1982.747 1982.747 0 0 1-12.497-18.242 2021.732 2021.732 0 0 1-24.528-37.11 2090.16 2090.16 0 0 1-47.152-76.668c-30.573-52.178-59.403-106.458-86.363-162.664-53.92-112.411-100.361-232.523-138.319-358.919-75.915-252.793-117.894-530.724-117.894-822.466 0-583.482 167.917-1111.726 439.402-1494.1a1923.121 1923.121 0 0 1 19.259-26.645V-1h1041.553z" clip-path="url(#b)"/><path fill="#1a222b" d="M3723.357-1h1001.101v-.333a1887.696 1887.696 0 0 1 38.061 51.723c265.945 374.57 430.435 892.034 430.435 1463.608s-164.49 1089.038-430.435 1463.608a1890.149 1890.149 0 0 1-18.866 26.1V3001H2703.061v2.706a1876.704 1876.704 0 0 1-18.865-26.1c-265.945-374.57-430.435-892.034-430.435-1463.608S2418.251 424.96 2684.196 50.39a1894.553 1894.553 0 0 1 25.228-34.695 1855.679 1855.679 0 0 1 12.833-17.028V-1h1001.1z" clip-path="url(#b)"/><path fill="#1a232c" d="M3703.265-1h954.691v-1.519a1785.33 1785.33 0 0 1 12.847 16.25 1829.51 1829.51 0 0 1 49.975 67.108c260.404 366.766 421.467 873.45 421.467 1433.116s-161.063 1066.35-421.467 1433.116a1856.451 1856.451 0 0 1-24.702 33.972 1824.03 1824.03 0 0 1-18.902 24.932V3001H2729.357v4.974a1817.574 1817.574 0 0 1-18.902-24.932 1851.724 1851.724 0 0 1-24.702-33.972c-260.404-366.766-421.468-873.449-421.468-1433.116s161.063-1066.35 421.468-1433.116a1829.51 1829.51 0 0 1 49.975-67.108 1785.33 1785.33 0 0 1 12.847-16.25V-1h954.69z" clip-path="url(#b)"/><path fill="#1a232c" d="M3683.174-1H4592v-.472a1702.97 1702.97 0 0 1 12.843 15.481 1726.044 1726.044 0 0 1 25.283 31.597 1791.77 1791.77 0 0 1 48.912 65.68c254.864 358.963 412.5 854.866 412.5 1402.625s-157.636 1043.661-412.5 1402.624a1790.619 1790.619 0 0 1-48.912 65.68 1737.05 1737.05 0 0 1-18.911 23.777V3001H2755.133v4.993a1723.416 1723.416 0 0 1-18.911-23.777 1791.77 1791.77 0 0 1-48.912-65.68c-254.864-358.963-412.5-854.865-412.5-1402.624s157.636-1043.662 412.5-1402.625a1790.619 1790.619 0 0 1 48.912-65.68 1722.64 1722.64 0 0 1 38.126-47.078V-1h908.826z" clip-path="url(#b)"/><path fill="#1b242d" d="M3663.082-1H4520.176v-4.512a1609.405 1609.405 0 0 1 19.281 22.006c34.022 39.546 66.674 81.348 97.839 125.243 249.323 351.159 403.533 836.281 403.533 1372.133s-154.209 1020.973-403.533 1372.133a1751.144 1751.144 0 0 1-47.848 64.252 1688.554 1688.554 0 0 1-24.733 30.911 1656.538 1656.538 0 0 1-18.895 22.639V3001H2780.344v2.803a1643.075 1643.075 0 0 1-18.895-22.639 1680.918 1680.918 0 0 1-24.733-30.911 1751.707 1751.707 0 0 1-47.848-64.252c-249.323-351.159-403.533-836.281-403.533-1372.133s154.209-1020.973 403.533-1372.133c31.165-43.895 63.817-85.697 97.839-125.243a1636.541 1636.541 0 0 1 19.281-22.006V-1h857.094z" clip-path="url(#b)"/><path fill="#1b242d" d="M3642.99-1H4449v-5.601a1550.719 1550.719 0 0 1 50.891 56.327c33.266 38.667 65.192 79.54 95.665 122.46 243.783 343.356 394.565 817.698 394.565 1341.641s-150.783 998.285-394.565 1341.641c-30.473 42.919-62.399 83.792-95.665 122.459a1566.32 1566.32 0 0 1-25.199 28.584V3001H2811.289v5.51a1566.32 1566.32 0 0 1-25.199-28.584c-33.266-38.667-65.192-79.54-95.665-122.459-243.783-343.356-394.565-817.698-394.565-1341.641s150.783-998.285 394.565-1341.641c30.473-42.92 62.399-83.792 95.665-122.46a1548.864 1548.864 0 0 1 50.891-56.327V-1h806.009z" clip-path="url(#b)"/><path fill="#1b242e" d="M3622.898-1H4378.545v-3.799a1452.24 1452.24 0 0 1 32.045 32.71 1514.212 1514.212 0 0 1 49.734 55.047c32.51 37.788 63.71 77.732 93.491 119.676 238.242 335.552 385.598 799.114 385.598 1311.149s-147.356 975.597-385.598 1311.149c-29.78 41.944-60.98 81.888-93.491 119.677a1513.25 1513.25 0 0 1-56.085 61.694V3001H2841.558v5.302a1432.884 1432.884 0 0 1-6.351-6.648 1515.015 1515.015 0 0 1-49.734-55.046c-32.51-37.789-63.711-77.732-93.491-119.677-238.242-335.552-385.598-799.113-385.598-1311.149s147.356-975.597 385.598-1311.149c29.78-41.944 60.98-81.888 93.491-119.676a1515.05 1515.05 0 0 1 49.734-55.047 1452.983 1452.983 0 0 1 32.045-32.71V-1h755.646z" clip-path="url(#b)"/><path fill="#1c252f" d="M3602.806-1H4302.4v-5.14a1338.652 1338.652 0 0 1 19.363 18.069c68.41 65.094 132.134 139.217 190.31 221.154 232.702 327.749 376.63 780.529 376.63 1280.657s-143.929 952.908-376.63 1280.657c-29.088 40.969-59.563 79.983-91.317 116.893a1480.309 1480.309 0 0 1-48.577 53.767 1421.812 1421.812 0 0 1-37.644 38.184V3001H2871.077v2.241a1394.57 1394.57 0 0 1-12.661-12.521 1428.528 1428.528 0 0 1-24.983-25.663 1479.47 1479.47 0 0 1-48.577-53.767c-31.754-36.91-62.229-75.925-91.317-116.893-232.702-327.749-376.631-780.529-376.631-1280.657s143.929-952.908 376.631-1280.657c58.175-81.937 121.899-156.06 190.309-221.154a1362.741 1362.741 0 0 1 19.364-18.069V-1h699.594z" clip-path="url(#b)"/><path fill="#1c252f" d="M3582.715-1h644.426v-2.855a1302.524 1302.524 0 0 1 57.414 51.498c66.781 63.544 128.988 135.902 185.778 215.889 227.161 319.945 367.663 761.945 367.663 1250.165s-140.502 930.22-367.663 1250.165c-56.79 79.986-118.997 152.344-185.778 215.889a1322.344 1322.344 0 0 1-25.256 23.414V3001H2906.131v2.165a1319.109 1319.109 0 0 1-25.256-23.414c-66.781-63.545-128.988-135.903-185.778-215.889-227.161-319.945-367.663-761.945-367.663-1250.165s140.502-930.22 367.663-1250.165c56.79-79.986 118.997-152.344 185.778-215.889a1301.8 1301.8 0 0 1 57.414-51.498V-1h644.426z" clip-path="url(#b)"/><path fill="#1c2630" d="M3562.623-1h583.748v-2.041c34.705 26.554 68.397 55.401 100.974 86.399 65.152 61.995 125.842 132.588 181.247 210.623 221.621 312.142 358.696 743.361 358.696 1219.673s-137.075 907.532-358.696 1219.673c-55.405 78.035-116.094 148.628-181.247 210.623a1270.06 1270.06 0 0 1-49.688 44.866 1226.544 1226.544 0 0 1-19.049 15.971V3001H2946.639v3.788a1202.321 1202.321 0 0 1-19.05-15.971 1270.06 1270.06 0 0 1-49.688-44.866c-65.153-61.995-125.842-132.588-181.247-210.623-221.621-312.142-358.696-743.361-358.696-1219.673s137.075-907.532 358.696-1219.673c55.405-78.035 116.094-148.628 181.247-210.623 32.576-30.997 66.268-59.845 100.974-86.399V-1h583.748z" clip-path="url(#b)"/><path fill="#1d2631" d="M3542.531-1H4060.2v-1.306a1117.163 1117.163 0 0 1 51.485 37.14c33.837 25.89 66.688 54.016 98.449 84.239 63.524 60.445 122.696 129.273 176.716 205.357 216.08 304.338 349.729 724.777 349.729 1189.182s-133.648 884.844-349.729 1189.182c-54.02 76.084-113.192 144.913-176.716 205.357-31.762 30.222-64.612 58.349-98.449 84.239-4.23 3.236-8.475 6.438-12.735 9.604V3001H2986.113v.993c-4.26-3.166-8.506-6.367-12.735-9.604-33.838-25.89-66.688-54.016-98.449-84.239-63.524-60.445-122.696-129.273-176.716-205.357-216.08-304.338-349.728-724.777-349.728-1189.182s133.648-884.843 349.728-1189.182c54.02-76.084 113.192-144.913 176.716-205.357 31.762-30.222 64.612-58.349 98.449-84.239a1117.163 1117.163 0 0 1 51.485-37.14V-1h517.668z" clip-path="url(#b)"/><path fill="#1d2732" d="M3522.439-1h439.77v-2.959c4.377 2.519 8.74 5.074 13.09 7.665 139.191 82.919 264.54 202.906 369.81 351.173 210.54 296.535 340.761 706.193 340.761 1158.69s-130.222 862.155-340.761 1158.69c-52.635 74.134-110.29 141.197-172.185 200.092-30.947 29.448-62.955 56.853-95.925 82.079a1088.228 1088.228 0 0 1-50.165 36.187 1048.289 1048.289 0 0 1-25.601 16.835V3001h-957.589v6.452a1051.23 1051.23 0 0 1-25.601-16.835 1088.228 1088.228 0 0 1-50.165-36.187c-32.97-25.226-64.978-52.631-95.925-82.079-61.895-58.895-119.55-125.958-172.185-200.092-210.54-296.535-340.761-706.193-340.761-1158.69s130.221-862.155 340.761-1158.69c105.27-148.267 230.619-268.254 369.81-351.173 4.35-2.591 8.713-5.146 13.09-7.665V-1h439.771z" clip-path="url(#b)"/><path fill="#1d2832" d="M3502.347-1h350.132v-3.317a926.486 926.486 0 0 1 39.368 19.145 963.073 963.073 0 0 1 51.443 28.568c135.528 80.737 257.579 197.566 360.078 341.932 204.999 288.731 331.793 687.609 331.793 1128.198s-126.794 839.467-331.793 1128.198c-102.5 144.366-224.55 261.194-360.078 341.932a973.345 973.345 0 0 1-25.568 14.713 951.21 951.21 0 0 1-12.9 7.035V3001h-804.949v4.404a962.376 962.376 0 0 1-38.468-21.748c-135.528-80.737-257.579-197.566-360.078-341.932-204.999-288.731-331.793-687.609-331.793-1128.198s126.794-839.467 331.793-1128.198c102.5-144.366 224.55-261.194 360.078-341.932a963.073 963.073 0 0 1 51.443-28.568 932.557 932.557 0 0 1 26.173-12.984 900.226 900.226 0 0 1 13.196-6.161V-1h350.13z" clip-path="url(#b)"/><path fill="#1e2833" d="M3482.256-1h222.131v-6.369c71.75 20.679 140.961 51.178 206.894 90.455 131.865 78.555 250.617 192.227 350.346 332.69 199.458 280.927 322.826 669.025 322.826 1097.706s-123.368 816.779-322.826 1097.706c-99.729 140.464-218.481 254.135-350.346 332.69-32.966 19.639-66.752 37.083-101.265 52.202a872.473 872.473 0 0 1-26.02 10.902V3001h-603.48v5.983a869.835 869.835 0 0 1-26.02-10.902c-34.513-15.119-68.299-32.563-101.265-52.202-131.865-78.555-250.617-192.226-350.346-332.69-199.459-280.927-322.826-669.025-322.826-1097.706s123.368-816.779 322.826-1097.706c99.729-140.464 218.481-254.135 350.346-332.69 65.932-39.278 135.143-69.776 206.894-90.455V-1h222.131z" clip-path="url(#b)"/><path fill="#1e2934" d="M3462.164 4.171c591.818 0 1071.581 675.723 1071.581 1509.269 0 416.773-119.94 794.09-313.858 1067.214-96.959 136.562-212.413 247.075-340.615 323.449-64.101 38.187-131.389 67.838-201.147 87.943a792.854 792.854 0 0 1-52.77 13.273V3001h-326.382v4.318a793.01 793.01 0 0 1-52.77-13.273c-69.757-20.105-137.046-49.756-201.147-87.943-128.202-76.373-243.656-186.887-340.615-323.449-193.918-273.124-313.859-650.441-313.859-1067.214.001-833.546 479.764-1509.268 1071.582-1509.268z" clip-path="url(#b)"/><ellipse cx="3442.072" cy="1513.397" fill="#1f2935" clip-path="url(#b)" rx="1040.964" ry="1466.147"/><ellipse cx="3421.98" cy="1513.354" fill="#1f2a36" clip-path="url(#b)" rx="1010.348" ry="1423.025"/><ellipse cx="3401.888" cy="1513.311" fill="#202b37" clip-path="url(#b)" rx="979.731" ry="1379.903"/><ellipse cx="3381.797" cy="1513.268" fill="#202b38" clip-path="url(#b)" rx="949.115" ry="1336.781"/><ellipse cx="3361.705" cy="1513.225" fill="#212c39" clip-path="url(#b)" rx="918.498" ry="1293.659"/><ellipse cx="3341.613" cy="1513.182" fill="#212d3a" clip-path="url(#b)" rx="887.881" ry="1250.537"/><ellipse cx="3321.521" cy="1513.139" fill="#222e3b" clip-path="url(#b)" rx="857.265" ry="1207.415"/><ellipse cx="3301.429" cy="1513.096" fill="#222e3c" clip-path="url(#b)" rx="826.648" ry="1164.293"/><ellipse cx="3281.338" cy="1513.053" fill="#232f3d" clip-path="url(#b)" rx="796.031" ry="1121.171"/><ellipse cx="3261.246" cy="1513.011" fill="#23303e" clip-path="url(#b)" rx="765.415" ry="1078.049"/><ellipse cx="3241.154" cy="1512.968" fill="#243140" clip-path="url(#b)" rx="734.798" ry="1034.927"/><ellipse cx="3221.062" cy="1512.925" fill="#243141" clip-path="url(#b)" rx="704.182" ry="991.805"/><ellipse cx="3200.97" cy="1512.882" fill="#253242" clip-path="url(#b)" rx="673.565" ry="948.683"/><ellipse cx="3180.879" cy="1512.839" fill="#253343" clip-path="url(#b)" rx="642.949" ry="905.561"/><ellipse cx="3160.787" cy="1512.796" fill="#263444" clip-path="url(#b)" rx="612.332" ry="862.439"/><ellipse cx="3140.695" cy="1512.753" fill="#273546" clip-path="url(#b)" rx="581.715" ry="819.317"/><ellipse cx="3120.603" cy="1512.71" fill="#273647" clip-path="url(#b)" rx="551.099" ry="776.195"/><ellipse cx="3100.511" cy="1512.667" fill="#283748" clip-path="url(#b)" rx="520.482" ry="733.073"/><ellipse cx="3080.42" cy="1512.625" fill="#28384a" clip-path="url(#b)" rx="489.866" ry="689.951"/><ellipse cx="3060.328" cy="1512.582" fill="#29394b" clip-path="url(#b)" rx="459.249" ry="646.83"/><ellipse cx="3040.236" cy="1512.539" fill="#2a394c" clip-path="url(#b)" rx="428.632" ry="603.708"/><ellipse cx="3020.144" cy="1512.496" fill="#2a3a4e" clip-path="url(#b)" rx="398.016" ry="560.586"/><ellipse cx="3000.052" cy="1512.453" fill="#2b3b4f" clip-path="url(#b)" rx="367.399" ry="517.464"/><ellipse cx="2979.96" cy="1512.41" fill="#2c3c51" clip-path="url(#b)" rx="336.783" ry="474.342"/><ellipse cx="2959.869" cy="1512.367" fill="#2c3d52" clip-path="url(#b)" rx="306.166" ry="431.22"/><ellipse cx="2939.777" cy="1512.324" fill="#2d3e54" clip-path="url(#b)" rx="275.549" ry="388.098"/><ellipse cx="2919.685" cy="1512.281" fill="#2e3f55" clip-path="url(#b)" rx="244.933" ry="344.976"/><ellipse cx="2899.593" cy="1512.238" fill="#2f4057" clip-path="url(#b)" rx="214.316" ry="301.854"/><ellipse cx="2879.501" cy="1512.195" fill="#2f4258" clip-path="url(#b)" rx="183.7" ry="258.732"/><ellipse cx="2859.41" cy="1512.152" fill="#30435a" clip-path="url(#b)" rx="153.083" ry="215.61"/><ellipse cx="2839.318" cy="1512.11" fill="#31445b" clip-path="url(#b)" rx="122.466" ry="172.488"/><ellipse cx="2819.226" cy="1512.067" fill="#31455d" clip-path="url(#b)" rx="91.85" ry="129.366"/><ellipse cx="2799.134" cy="1512.024" fill="#32465e" clip-path="url(#b)" rx="61.233" ry="86.244"/><ellipse cx="2779.042" cy="1511.981" fill="#334760" clip-path="url(#b)" rx="30.617" ry="43.122"/><path fill="#fff" d="M3124.234 686.702h398.298v1626.596h-398.298z"/><linearGradient id="c" x1="2477.468" x2="6000" y1="2656.649" y2="2656.649" gradientUnits="userSpaceOnUse"><stop offset="0" stop-color="#d4feff"/><stop offset=".11" stop-color="#b2d5d6"/><stop offset=".295" stop-color="#7c9595"/><stop offset=".472" stop-color="#506060"/><stop offset=".636" stop-color="#2d3637"/><stop offset=".783" stop-color="#141919"/><stop offset=".91" stop-color="#050606"/><stop offset="1"/></linearGradient><path fill="url(#c)" d="M2477.468 2313.298H6000V3000z"/><linearGradient id="d" x1="2477.468" x2="3124.234" y1="1500" y2="1500" gradientUnits="userSpaceOnUse"><stop offset="0" stop-color="#192129"/><stop offset=".359" stop-color="#1a232c"/><stop offset=".586" stop-color="#1e2934"/><stop offset=".776" stop-color="#253343"/><stop offset=".945" stop-color="#2f4157"/><stop offset="1" stop-color="#334760"/></linearGradient><path fill="url(#d)" d="m3124.234 586.702-646.766 100v1626.596l646.766 100z"/><linearGradient id="e" x1="2980.234" x2="3019.766" y1="1500" y2="1500" gradientUnits="userSpaceOnUse"><stop offset="0" stop-color="#192129"/><stop offset=".407" stop-color="#222f3d"/><stop offset="1" stop-color="#334760"/></linearGradient><path fill="url(#e)" d="M3000 1368.915c-10.917 0-19.766 8.849-19.766 19.766v222.638c0 10.916 8.85 19.766 19.766 19.766 10.917 0 19.766-8.849 19.766-19.766v-222.638c0-10.917-8.849-19.766-19.766-19.766z"/></svg>