<?xml version="1.0" encoding="utf-8"?>
<!-- Generator: Adobe Illustrator 19.0.0, SVG Export Plug-In . SVG Version: 6.00 Build 0)  -->
<svg version="1.1" id="layer" xmlns="http://www.w3.org/2000/svg" xmlns:xlink="http://www.w3.org/1999/xlink" x="0px" y="0px"
	 viewBox="-153 -46 652 652" style="enable-background:new -153 -46 652 652;" xml:space="preserve">
<style type="text/css">
	.st0{fill:#222222;}
</style>
<path class="st0" d="M-18.3,266.8v-16.4h-49c-14.3,0-22.3,8.6-22.3,21.1V282h-21.3v-23c0-16.1,1.6-23.8,19.8-23.8h72.7v-16.6h-83.5
	c-18.3,0-29.3,12.2-29.3,30v82.8h20.3v-33h21.3v33h20.4v-33h50.8V282h-50.8v-5.5c0-6.8,1.1-9.7,10.6-9.7H-18.3z"/>
<path class="st0" d="M89.4,271c-1.5-3.2-2.3-4.9-3.3-7.3c-0.9,2.5-1.4,3.3-3.1,7.5l-3.5,8.6h13.8L89.4,271z M75.5,290.5l-4.9,10.9
	H56.2l25.1-52.8h12.1l25.1,52.8h-14.2L99,290.5H75.5z M154.4,271.5c2.9,0,4.2-0.2,5.4-0.8c1.9-1.1,3.1-3.1,3.1-5.4
	c0-2.2-1.2-4.2-3.1-5.4c-1.2-0.6-2.4-0.8-5.4-0.8h-17.6v12.3H154.4z M136.8,301.4h-13.2v-52.8H158c6.1,0,9.5,0.8,12.6,2.7
	c4,2.6,6.5,7,6.5,11.8c0,6.3-3.3,10.9-9.2,13.4c5.2,1.8,6.8,4.8,7,13c0.3,6.6,0.6,8.5,2.3,11.9h-14.6c-1-2.9-1.2-4.2-1-9.2
	c0-7.7-2.1-10-8.9-10h-15.8L136.8,301.4z M238.9,301.4v-52.8h48.3v10.7h-35.1v9.9h31v10.7h-31v10.9h35.1v10.7L238.9,301.4z
	 M325.6,301.4h-13.2v-42.1h-18.3v-10.7h49.7v10.7h-18.2V301.4z M408.6,280.7c-3.8,15-14.1,22.6-31.1,22.6
	c-19.4,0-31.7-10.8-31.7-27.8c0-17.4,12.6-28.8,32-28.8c9.3,0,16.5,2.4,22.3,7.6c3.9,3.3,6.6,7.7,7.7,12.7h-14.3
	c-2.7-6.7-7.9-10-15.8-10c-10.6,0-18,7.5-18,18.2c0,10.5,7.3,17.8,17.7,17.8c8.4,0,13.5-3.8,16.5-12.3H408.6z M455.7,248.6v20.6
	h-27.2v-20.6h-13.2v52.8h13.2v-21.5h27.2v21.5h13.2v-52.8H455.7z M13.4,301.4v-52.8h46.3v10.7H26.6v9.9H57v10.7H26.6v21.5H13.4z
	 M185.7,301.4v-52.8h46.3v10.7H199v9.9h30.4v10.7H199v21.5H185.7z"/>
</svg>
