<svg xmlns="http://www.w3.org/2000/svg" xmlns:xlink="http://www.w3.org/1999/xlink" width="101" height="42" viewBox="0 0 101 42"><defs><path id="a" d="M155.56 50.83a2 2 0 0 0-1-.23 2 2 0 0 0-1.47.67 2.51 2.51 0 0 0-.49.83 3.38 3.38 0 0 0-.19 1.18c-.008.339.04.676.14 1 .09.273.228.527.41.75.177.212.4.383.65.5.277.124.577.185.88.18h.75l.16-.06a2.229 2.229 0 0 0 0-.26v-1.94h1.31a1.07 1.07 0 0 0 0 .22v1.89a1.69 1.69 0 0 0 0 .26 9.6 9.6 0 0 1-1.14.25 7.1 7.1 0 0 1-1.14.1A4.54 4.54 0 0 1 153 56a3.15 3.15 0 0 1-1-.6 2.55 2.55 0 0 1-.7-.89 2.71 2.71 0 0 1-.3-1.19 3.48 3.48 0 0 1 .27-1.42 2.78 2.78 0 0 1 .75-1 3.17 3.17 0 0 1 1.12-.61 4.82 4.82 0 0 1 1.4-.2 4.17 4.17 0 0 1 1.12.13c.327.09.642.217.94.38l-.13.4c0 .14-.08.29-.11.43h-.12a2.17 2.17 0 0 0-.68-.62"/><path id="b" d="M162.56 51.94a2.41 2.41 0 0 0-.38-.75 1.71 1.71 0 0 0-.59-.47 1.78 1.78 0 0 0-.76-.16 1.53 1.53 0 0 0-.78.2 1.81 1.81 0 0 0-.59.57 2.68 2.68 0 0 0-.36.84 4.19 4.19 0 0 0-.12 1 4 4 0 0 0 .14 1.15c.08.279.216.538.4.76.155.181.35.322.57.41.217.086.448.13.68.13a1.7 1.7 0 0 0 .73-.16 1.67 1.67 0 0 0 .59-.46 2.65 2.65 0 0 0 .42-.85 4.05 4.05 0 0 0 .16-1.22 3.36 3.36 0 0 0-.13-1m-4.76.01a3 3 0 0 1 1.7-1.63 3.62 3.62 0 0 1 1.35-.24c.431-.004.86.06 1.27.19a2.91 2.91 0 0 1 1 .56c.305.276.542.618.69 1 .176.425.262.881.25 1.34a2.95 2.95 0 0 1-.92 2.17 3 3 0 0 1-1 .65 3.6 3.6 0 0 1-1.31.23 4.62 4.62 0 0 1-1.28-.21 2.68 2.68 0 0 1-1-.54 2.59 2.59 0 0 1-.7-.95 3.41 3.41 0 0 1-.26-1.38 3 3 0 0 1 .24-1.19"/><path id="c" d="M168.14 52.28c.28-.74.53-1.43.75-2.11a2 2 0 0 0 .38 0 2 2 0 0 0 .38 0l-.51 1.22-.62 1.5c-.22.53-.43 1.07-.64 1.62-.21.55-.41 1.06-.58 1.49h-.75l-.31-.83-.4-1-.44-1.11L165 52l-.4-1-.32-.79h1.53c.1.32.21.65.33 1l.38 1.08c.13.37.26.74.4 1.11l.41 1.1c.293-.727.58-1.453.86-2.18"/><path id="d" d="M170.41 51.28v-1.11h3.25a1.65 1.65 0 0 0 0 .36c-.004.07-.004.14 0 .21v.17h-1.92v1.87h1.93v.38a.7.7 0 0 0 0 .14v.21c-.65 0-1.3-.08-1.94-.08v2.16h1c.35 0 .66 0 1-.09v.17c-.004.07-.004.14 0 .21-.004.07-.004.14 0 .21a.76.76 0 0 0 0 .13h-3.37v-4.94"/><path id="e" d="M177.27 51.18a.65.65 0 0 0-.23-.33.82.82 0 0 0-.41-.15 4.19 4.19 0 0 0-.6 0v2.32h.19a1.15 1.15 0 0 0 .86-.3 1.24 1.24 0 0 0 .3-.92 1.9 1.9 0 0 0-.08-.6zM176 53.35v1.61c0 .37 0 .73.05 1.09l-.25-.05h-1.12c0-.35 0-.71.05-1.09.05-.38 0-.79 0-1.26v-2.37c0-.37 0-.74-.05-1.11h2.53l.4.05c.1.018.197.049.29.09a1 1 0 0 1 .23.13c.167.12.303.278.4.46.104.204.156.431.15.66.01.363-.11.718-.34 1a1.87 1.87 0 0 1-1 .56c.27.49.56 1 .88 1.44l.98 1.44h-1.59l-1.52-2.69H176z"/><path id="f" d="M180.07 50.88v-.71a1.7 1.7 0 0 0 .77 0l1.84 2c.6.67 1.23 1.35 1.86 2V50.51a2.83 2.83 0 0 0 0-.33c.13.01.26.01.39 0 .126.01.254.01.38 0 0 .52-.023.99-.07 1.41v4.43h-.68a1621.89 1621.89 0 0 0-3.89-4.1v4.13h-.76v-.49c0-.28 0-.61.05-1s0-.84.05-1.31c.05-.47 0-.92 0-1.35v-1"/><path id="g" d="M187.13 54.13c0 .64-.09 1.28-.14 1.92h-.81c.187-.98.35-1.953.49-2.92.14-1 .27-2 .4-3h.69c.16.34.32.69.49 1l.51 1.05c.17.36.33.7.5 1l.48 1c.34-.64.68-1.31 1-2 .32-.69.66-1.39 1-2.08a2 2 0 0 0 .37 0 2 2 0 0 0 .36 0l.18 1.58c.07.56.13 1.12.19 1.65.06.53.13 1 .19 1.51s.12.85.17 1.13h-1.41c0-.59-.08-1.22-.14-1.91-.06-.69-.13-1.36-.2-2l-1 2c-.31.65-.62 1.3-.93 2h-.3c-.31-.64-.61-1.28-.92-1.92l-.94-1.94c-.09.65-.16 1.3-.21 1.94"/><path id="h" d="M194.15 51.28v-1.11h3.3a1.6 1.6 0 0 0 0 .36 1.2 1.2 0 0 0 0 .21 1.488 1.488 0 0 0 0 .17h-1.97v1.87h1.94v.38a.58.58 0 0 0 0 .14v.21c-.65 0-1.3-.08-1.94-.08v2.16h1c.35 0 .65 0 1-.09a1.46 1.46 0 0 0 0 .17 1.27 1.27 0 0 0 0 .21 1.19 1.19 0 0 0 0 .21.56.56 0 0 0 0 .13h-3.37v-4.94"/><path id="i" d="M198.58 50.88v-.71a1.7 1.7 0 0 0 .77 0l1.84 2c.6.67 1.23 1.35 1.87 2V50.51c.006-.11.006-.22 0-.33.126.01.254.01.38 0 .13.01.26.01.39 0 0 .52-.05 1-.07 1.41-.02.41 0 .81 0 1.18v3.25h-.69a6812.871 6812.871 0 0 0-3.88-4.1v4.13L199 56h-.59v-.49c0-.28 0-.61.06-1s0-.84.05-1.31c.05-.47 0-.92 0-1.35v-1"/><path id="j" d="M206.18 51.11c.005-.1.005-.2 0-.3h-1.58a1.668 1.668 0 0 0 0-.19 1.43 1.43 0 0 0 0-.18 1.49 1.49 0 0 0 0-.19 1.619 1.619 0 0 0 0-.19h4.35v.19a1.33 1.33 0 0 0 0 .19 1.27 1.27 0 0 0 0 .18v.19h-1.49a1 1 0 0 0 0 .12v5.11l-.26-.04h-1.09V51.06z"/><path id="k" d="M216.85 51.94a2.28 2.28 0 0 0-.38-.75 1.73 1.73 0 0 0-.59-.47 1.76 1.76 0 0 0-.76-.16 1.53 1.53 0 0 0-.78.2 1.9 1.9 0 0 0-.58.57 2.82 2.82 0 0 0-.36.84 4 4 0 0 0-.12 1 3.86 3.86 0 0 0 .15 1.15c.077.278.21.537.39.76.155.181.35.322.57.41.217.086.448.13.68.13.253 0 .502-.054.73-.16a1.69 1.69 0 0 0 .58-.46 2.58 2.58 0 0 0 .42-.85 4.12 4.12 0 0 0 .2-1.22 3.36 3.36 0 0 0-.14-1m-4.79.01a3 3 0 0 1 1.7-1.63 3.63 3.63 0 0 1 1.35-.24c.432-.004.86.06 1.27.19a2.89 2.89 0 0 1 1 .56c.303.277.54.62.69 1 .175.425.26.881.25 1.34a3 3 0 0 1-.92 2.17 3 3 0 0 1-1 .65 3.6 3.6 0 0 1-1.32.23 4.61 4.61 0 0 1-1.26-.21 2.66 2.66 0 0 1-1.7-1.49 3.38 3.38 0 0 1-.26-1.38 3 3 0 0 1 .23-1.19"/><path id="l" d="M219.32 51.28c0-.37 0-.74-.05-1.11h3.3a1.69 1.69 0 0 0 0 .36v.38h-1.92v1.87h1.94v.38a.64.64 0 0 0 0 .14v.21c-.65 0-1.3-.08-1.94-.08v2.61h-1.38c0-.36 0-.71.05-1.08.05-.37 0-.79 0-1.26v-2.42"/><path id="m" d="M227.33 54.28v1.22h.76a1.91 1.91 0 0 0 1.53-.66A3.64 3.64 0 0 0 230 52a2.21 2.21 0 0 0-.4-.71 1.75 1.75 0 0 0-.6-.47 2 2 0 0 0-.8-.16h-.89v3.62zm-1.28-3c0-.37 0-.74-.05-1.11h2.24c.45-.005.9.038 1.34.13.36.08.7.234 1 .45.298.219.532.512.68.85a3.75 3.75 0 0 1 0 2.63 2.91 2.91 0 0 1-.64 1 2.74 2.74 0 0 1-.94.62 3 3 0 0 1-1.14.22h-2.23L226 56c0-.36 0-.71.05-1.09.05-.38 0-.79 0-1.26v-2.37z"/><path id="n" d="M234.3 56a2.29 2.29 0 0 1-.83-.39 1.84 1.84 0 0 1-.54-.61 2.39 2.39 0 0 1-.2-1V50.25h1.4c-.05.55-.09 1.07-.1 1.55-.01.48 0 1 0 1.45-.008.42.028.839.11 1.25.052.269.165.522.33.74a1 1 0 0 0 .54.35c.239.06.484.09.73.09.29.016.575-.076.8-.26a1.6 1.6 0 0 0 .44-.68 3.58 3.58 0 0 0 .18-1v-2.33c0-.39 0-.78-.05-1.18h.86v3.21a2.93 2.93 0 0 1-.64 2.13 2.52 2.52 0 0 1-1.88.64 4.36 4.36 0 0 1-1-.11"/><path id="o" d="M241.81 53.53c.198.253.294.57.27.89a1.53 1.53 0 0 1-.08.5 1.11 1.11 0 0 1-.23.34.87.87 0 0 1-.66.31h-.47V53.24h.36a1 1 0 0 1 .84.28m.16-2.25c.017.13.017.26 0 .39a1.28 1.28 0 0 1-.11.5 1.06 1.06 0 0 1-.22.34 1 1 0 0 1-.67.27h-.34v-2.06h.42a1 1 0 0 1 .43.08.77.77 0 0 1 .28.21.76.76 0 0 1 .17.28m-2.6 0v2.37c0 .47.06.88 0 1.26s-.06.73-.06 1.09l.39.04h1.73c.249 0 .497-.027.74-.08.232-.05.45-.148.64-.29a1.53 1.53 0 0 0 .44-.53 1.7 1.7 0 0 0 .17-.79 1.23 1.23 0 0 0-.17-.65 1.51 1.51 0 0 0-.41-.44 2 2 0 0 0-.5-.26 2.06 2.06 0 0 0-.46-.09c.15-.029.298-.073.44-.13a1.78 1.78 0 0 0 .45-.26 1.4 1.4 0 0 0 .36-.42 1.18 1.18 0 0 0 .15-.6 1.34 1.34 0 0 0-.13-.61 1.09 1.09 0 0 0-.35-.41 1.63 1.63 0 0 0-.55-.23 2.85 2.85 0 0 0-.7-.08h-2.25c.06.37.06.74.06 1.11"/><path id="p" d="M246.05 51.77c-.15.35-.29.68-.42 1l-.38 1h1.57c-.12-.35-.25-.68-.37-1-.12-.32-.25-.67-.39-1m3.03 4.23h-1.45l-.28-.86c-.1-.29-.2-.58-.31-.87H245c-.11.29-.22.58-.32.87-.1.29-.18.58-.26.86h-.84c.07-.15.16-.36.28-.62.12-.26.24-.56.38-.89l.44-1.06.47-1.15c.16-.39.31-.77.46-1.15.15-.38.29-.72.42-1h.65l.58 1.55c.21.56.42 1.1.63 1.63.21.53.42 1 .62 1.52s.38.88.54 1.21"/><path id="q" d="M250 51.28v-1.11h1.31c0 .37 0 .74-.05 1.11-.05.37 0 .79 0 1.26v2.42c0 .37 0 .73.05 1.08L251 56h-1.06v-4.72"/><path id="r" d="M151.24 30.51S157.78 39 171.6 39a33.32 33.32 0 0 0 17.09-4.54s.24-.59-.84-.84l-1.09-.27a19.16 19.16 0 0 1-4-1.56l.74-1.87a8 8 0 0 0 3.91-1c.56-.31.09-1.26-.17-1.61a29.21 29.21 0 0 1-2-3.47 2.35 2.35 0 0 0-.78-1.3l.43-2.48 2.69 2.69h-1.16s1.34 2.25 1.58 2.73a4.68 4.68 0 0 1 .48 3.17 4 4 0 0 1-1.63 2.35s2 .56 2.43.74c.43.18 1.13.74.57 2.34a4.31 4.31 0 0 1-2 2.69c-.91.57-6.09 4.48-18.94 4.3C161.57 41 155 36.43 155 36.43s-2.51-3.48-3.16-4.56a3 3 0 0 1-.6-1.36"/><path id="s" d="M190 15.62s-20.13 6.51-28.26 10.12l-1 1.87s18.73-7.13 28.5-10.34z"/><path id="t" d="M173.3 29.35s1-1.91 1.48-2a9.24 9.24 0 0 1 3.26.35c.69.31 0 1.08-.39 1.69a3.11 3.11 0 0 1-1.65 1.48c-.74.18-3.82.61-2.26 0s3.87-1.35 2.3-1.44c-1.57-.09-2.74-.08-2.74-.08"/><path id="u" d="M191.67 27.7a5.33 5.33 0 0 1 1.26 1.3 14 14 0 0 0 5.26 3.82c2.52 1 2.39 1.39 2 1.78a96.9 96.9 0 0 1-9.34 5.9c-2.52 1.22-4.73 1.48-2.78-4 0 0-.18-.26-.61.74s-2 5 .26 5.87c.78.31 1.65.17 4.17-1.13 2.52-1.3 7.82-4.86 8.64-5.82a3.25 3.25 0 0 0 .65-2.65c-.09-1-.09-1.48-2.34-2.69s-4.17-2.22-5-3.43l1.08-.09-3.21-2v2.4z"/><path id="v" d="M202.27 28.48l2.02 1.48-.98 1.99-2.03-1.48.99-1.99z"/><path id="w" d="M205.38 27.97l2.02 1.49-.97 1.99-2.04-1.49.99-1.99z"/><path id="x" d="M192.26 31.63l2.02 1.48-.97 1.99-2.04-1.49.99-1.98z"/><path id="y" d="M176.28 42.66l2.02 1.48-.98 1.99-2.03-1.48.99-1.99z"/><path id="z" d="M173.15 43.01l2.02 1.48-.97 1.99-2.04-1.48.99-1.99z"/><path id="A" d="M197.642 17.533s-1.35-.95-1.18-1.16a.91.91 0 0 1 1.12-.14c.42.27.06 1.31.06 1.31m.94.75c-.26-.29-.58-.52-.58-.52s1-1.56.16-2.66c-.29-.38-1.59.27-2.09.89a1.33 1.33 0 0 0 .14 1.82l.91.71a15.7 15.7 0 0 1-3.46 3.09c-2.5 1.82-4.72 3.38-4.72 3.38s-.71.58 1.16-.42a41.618 41.618 0 0 0 4.27-2.48 27.45 27.45 0 0 0 3.07-3.28c.215.137.404.31.56.51.2.29.31.48.31.48s.51-1.19.26-1.48"/><path id="B" d="M209.728 17.953s-1.35-.95-1.19-1.18a.91.91 0 0 1 1.12-.15c.42.27.06 1.31.06 1.31m.93.8a6.229 6.229 0 0 0-.53-.52s.94-1.56.11-2.66c-.29-.38-1.58.27-2.09.92a1.34 1.34 0 0 0 .15 1.82l.9.71a15.63 15.63 0 0 1-3.45 3.09c-2.51 1.78-4.74 3.31-4.74 3.31s-.7.6 1.18-.4a43.062 43.062 0 0 0 4.27-2.49 27.62 27.62 0 0 0 3.07-3.27c.215.135.405.307.56.51.2.29.31.47.31.47s.51-1.18.26-1.47"/><path id="C" d="M244.774 23.122s-1.099-.764-.99-.992a.742.742 0 0 1 .911-.119c.17.334.17.728 0 1.061m.849.72a4.719 4.719 0 0 0-.43-.43 2.16 2.16 0 0 0 .09-2.18c-.24-.31-1.3.22-1.71.76a1.09 1.09 0 0 0 .12 1.49l.74.57a13 13 0 0 1-2.83 2.53c-2.06 1.46-3.87 2.72-3.87 2.72s-.58.48 1-.34a33.28 33.28 0 0 0 3.5-2 22.66 22.66 0 0 0 2.52-2.68c.182.109.341.252.47.42l.19.35a2.05 2.05 0 0 0 .21-1.21"/><path id="D" d="M223 22.44s-11.14 3.92-13.54 5.13l-.38 1.16s3.64-1.62 7.44-3c3.8-1.38 5.68-2.15 5.68-2.15z"/><path id="E" d="M219.483 34.277c.49.34.845.843 1 1.42.14.49-.59.06-1.07-.2a4.84 4.84 0 0 1-1-.8 1.1 1.1 0 0 1 1.11-.43m-2.44 1.94a8 8 0 0 0 3.26 2c1.1.36 1.69-1.74 1.78-2.08.09-.34-.79-3.69-2-3.82-1.21-.13-2.34 1.65-2.34 1.65h-.1a.18.18 0 0 0-.26 0l-.42.47c-1.48 2.22-2.41 2.48-4 2.4-1.92-.1-3.07-2.4-3.42-3.22-.35-.82-2.21 0-3.17 1.56a51.891 51.891 0 0 0-2.3 5.65c-.83 1.91-1.57 1.48-2.39.48-.82-1-1.13-3.86-1.08-5.13.05-1.27-.26-.35-.26-.35-.56 5 1.3 7.91 2.35 7.82 1.05-.09 1.6-1.3 2-2.17.4-.87 1.16-4.13 2.09-5.21a1.89 1.89 0 0 1 1.84-.77c.144.109.258.254.33.42.31.52 1.93 3.15 4.1 3.15a3.82 3.82 0 0 0 3.15-2.11c.13-.22.53-1.14.82-.74"/><path id="F" d="M241.732 35.946c-.9.318-1.823.565-2.76.74 0 0-.83-2.819-.85-2.999a1.22 1.22 0 0 1 .5-.87 2.81 2.81 0 0 1 2.82-.33c1.52.52 3.61 1.72 4.52 2 0 0-2.39.85-4.23 1.46m-15.94.65c-.43-.17-.54-.17-.24-.54a.89.89 0 0 1 1.06-.26 1.2 1.2 0 0 1 .72.5c.125.144.23.305.31.48a8.332 8.332 0 0 1-1.85-.18m20.27-4.354c-1.48-.57-4.67-2.65-6.58-1.69a4.07 4.07 0 0 0-2.17 3.34c.074.901.225 1.794.45 2.67-2.63-.78-3.52-3.61-5.78-6.21-2.26-2.6-6.6-7-6.6-7a64.06 64.06 0 0 1 14.07-5c1.74-.35 2.44-.1 2.55.11.55.79-.28 1.52-.85 2.43a25.55 25.55 0 0 0-1.78 4c-.17.65-.24 1.35.13.54s1.5-2.94 2-3.87c.5-.93 1.91-3.37 1.93-4.37.02-1-1.65-1.11-2.89-.91-6.67 1-15.79 5.4-15.79 5.4l-.91 2.69a81.778 81.778 0 0 1 7.77 10.9c.15.56-2.14 1.12-2.14 1.12a4.37 4.37 0 0 0-2.76-2.69c-.85-.09-1.82.83-2.49 2.23a2 2 0 0 0 1.33 2.78 7.49 7.49 0 0 0 3-.09c.38.56.07.76.07.76a20.74 20.74 0 0 1-6.85 4.73c-2.69 1.14-5-.18-5.18-2.46a11.23 11.23 0 0 1 .91-4.65s0-.6-.39.2a12.17 12.17 0 0 0-1.26 4.62c-.07.65.08 4.48 3.17 4.82 4.21.47 8.45-4.1 9.51-5.15a5.56 5.56 0 0 0 1.15-3.19c2.3-.76 2.3-1.74 2.52-2.67a7.34 7.34 0 0 0-.3-2.71s1.67 2.52 3.11 4.3a4.32 4.32 0 0 0 3.37 1.68c-.008.47.053.938.18 1.39.46 0 .54-1.47.54-1.47 1.58-.24 4.5-1.56 7-2.7 2.5-1.14 3.93-.55 3.93-.55l1-2a21 21 0 0 1-5-1.32"/><path id="G" d="M215.45 20l-.08.22a4 4 0 0 0-.72-.37c-.19 0-.26-.16-.22-.48.04-.32.1-1 .54-.81a4.54 4.54 0 0 1 1.75 3.14s.19-2.13.35-2.74c.16-.61.39-1.18 1.48-.22l-.31.8s-.78-.85-1-.11a18.591 18.591 0 0 0-.24 2.16c-.13.87-.31 1.45-.37.85a5.41 5.41 0 0 0-.76-1.91 1.38 1.38 0 0 0-.42-.53"/><path id="H" d="M232.92 25.134l-.09.22a4.136 4.136 0 0 0-.72-.35c-.19 0-.26-.15-.22-.481.04-.331.11-1.003.54-.802a4.523 4.523 0 0 1 1.74 3.137s.19-2.135.35-2.746c.16-.612.4-1.203 1.48-.24l-.31.801s-.78-.852-1-.11a18.642 18.642 0 0 0-.28 2.155c-.13.872-.3 1.453-.37.851a5.52 5.52 0 0 0-.76-1.914 1.523 1.523 0 0 0-.39-.521"/><path id="I" d="M215.17 32.71c.33.08.94-.16 1.18-1.367.14-.679-.21 0-.21 0a.48.48 0 0 1-.52.22c-.26-.14-.58-.5-.2-1.567.23-.684.507-1.351.83-1.996 0-.09-.05-.29-.32.25-.509.91-.905 1.878-1.18 2.883a1.574 1.574 0 0 0 .3 1.467z"/><path id="J" d="M179.33 36.17c.34.08.94-.15 1.18-1.36.14-.68-.21 0-.21 0a.49.49 0 0 1-.52.22c-.26-.14-.58-.5-.2-1.57a17.15 17.15 0 0 1 .83-2c.05-.09-.05-.28-.32.25a12.77 12.77 0 0 0-1.18 2.9 1.57 1.57 0 0 0 .3 1.47z"/></defs><use fill="#ed1d24" xlink:href="#a" transform="translate(-151 -15)"/><use fill="#ed1d24" xlink:href="#b" transform="translate(-151 -15)"/><use fill="#ed1d24" xlink:href="#c" transform="translate(-151 -15)"/><use fill="#ed1d24" xlink:href="#d" transform="translate(-151 -15)"/><use fill="#ed1d24" xlink:href="#e" transform="translate(-151 -15)"/><use fill="#ed1d24" xlink:href="#f" transform="translate(-151 -15)"/><use fill="#ed1d24" xlink:href="#g" transform="translate(-151 -15)"/><use fill="#ed1d24" xlink:href="#h" transform="translate(-151 -15)"/><use fill="#ed1d24" xlink:href="#i" transform="translate(-151 -15)"/><use fill="#ed1d24" xlink:href="#j" transform="translate(-151 -15)"/><use fill="#ed1d24" xlink:href="#k" transform="translate(-151 -15)"/><use fill="#ed1d24" xlink:href="#l" transform="translate(-151 -15)"/><use fill="#ed1d24" xlink:href="#m" transform="translate(-151 -15)"/><use fill="#ed1d24" xlink:href="#n" transform="translate(-151 -15)"/><use fill="#ed1d24" xlink:href="#o" transform="translate(-151 -15)"/><use fill="#ed1d24" xlink:href="#p" transform="translate(-151 -15)"/><use fill="#ed1d24" xlink:href="#q" transform="translate(-151 -15)"/><use fill="#ed1d24" xlink:href="#r" transform="translate(-151 -15)"/><use fill="#ed1d24" xlink:href="#s" transform="translate(-151 -15)"/><use fill="#ed1d24" xlink:href="#t" transform="translate(-151 -15)"/><use fill="#ed1d24" xlink:href="#u" transform="translate(-151 -15)"/><use fill="#ed1d24" xlink:href="#v" transform="translate(-151 -15)"/><use fill="#ed1d24" xlink:href="#w" transform="translate(-151 -15)"/><use fill="#ed1d24" xlink:href="#x" transform="translate(-151 -15)"/><use fill="#ed1d24" xlink:href="#y" transform="translate(-151 -15)"/><use fill="#ed1d24" xlink:href="#z" transform="translate(-151 -15)"/><use fill="#ed1d24" xlink:href="#A" transform="translate(-151 -15)"/><use fill="#ed1d24" xlink:href="#B" transform="translate(-151 -15)"/><use fill="#ed1d24" xlink:href="#C" transform="translate(-151 -15)"/><use fill="#ed1d24" xlink:href="#D" transform="translate(-151 -15)"/><use fill="#ed1d24" xlink:href="#E" transform="translate(-151 -15)"/><use fill="#ed1d24" xlink:href="#F" transform="translate(-151 -15)"/><use fill="#ed1d24" xlink:href="#G" transform="translate(-151 -15)"/><use fill="#ed1d24" xlink:href="#H" transform="translate(-151 -15)"/><use fill="#ed1d24" xlink:href="#I" transform="translate(-151 -15)"/><use fill="#ed1d24" xlink:href="#J" transform="translate(-151 -15)"/></svg>