<?xml version="1.0" encoding="UTF-8"?>
<svg width="40px" height="40px" viewBox="0 0 40 40" version="1.1" xmlns="http://www.w3.org/2000/svg" xmlns:xlink="http://www.w3.org/1999/xlink">
    <title>logo</title>
    <g id="Page-1" stroke="none" stroke-width="1" fill="none" fill-rule="evenodd">
        <g id="logo" fill-rule="nonzero">
            <g id="Group">
                <polygon id="Path" fill="#0B22E8" points="0 0 0 40 40 40 40 0"></polygon>
                <path d="M24.4479321,16.2536246 C23.6152258,16.7418419 22.6887492,17.9039745 22,20 C22.1617867,19.9662367 22.3215924,19.9290971 22.4780963,19.8892564 C24.039173,19.4908495 25.2793177,18.804104 25.7316602,17.8587317 C26.0605165,17.1706357 26.0651389,16.6277219 25.8643913,16.3069706 C25.7607158,16.1408552 25.5890237,16.0348384 25.3757294,16.0078278 C25.1162103,15.9740645 24.7972594,16.0483438 24.4479321,16.2536246 M20,22 C18.6498602,22.392882 17.4269772,23.0496056 16.6816879,23.8854881 C16.0296864,24.6165251 15.8958386,25.4391579 16.0692324,26.0618932 C16.1351424,26.2992354 16.2451613,26.5060457 16.3861071,26.6644659 C16.521476,26.8165493 16.6862509,26.9248511 16.8692777,26.9726651 C17.2855244,27.081543 17.8107759,26.8753087 18.3294365,26.170771 C18.5149983,25.919027 18.7005601,25.6119799 18.883587,25.2432929 L18.882573,25.2427169 C19.0600228,24.8855514 19.2364587,24.4684743 19.4098525,23.9863009 C19.5837534,23.5023993 19.7424442,23.0017916 19.8757851,22.4983034 C19.9198941,22.3318182 19.961468,22.1659091 20,22 Z M26.372261,22.4538656 C25.1322931,21.894311 23.3694136,21.814455 21.6426929,22.0933887 C21.5392232,22.1102597 21.4357535,22.1282554 21.33284,22.1473759 C21.2644165,22.4493666 21.1854235,22.7496703 21.0969735,23.0454751 C20.9423252,23.5645393 20.7598625,24.0774175 20.5612674,24.5683633 C20.3582219,25.0711189 20.1501699,25.5069529 19.940449,25.8837384 L19.9387801,25.8837384 C19.7090328,26.2953906 19.4787292,26.6344976 19.2512071,26.9094948 C18.4657272,27.8587693 17.6023668,28.1202697 16.8814164,27.9526845 C16.5365173,27.8728285 16.227777,27.6934336 15.9780033,27.4431805 C15.7337925,27.1991135 15.5463231,26.8875625 15.4361779,26.5355211 C15.1674904,25.6773499 15.351622,24.567801 16.3051011,23.616277 C17.2897325,22.6338228 18.9224403,21.8847508 20.6775317,21.4837835 L20.6814258,21.4618512 C20.7420612,21.1221819 20.8093722,20.7993836 20.8828023,20.4923315 C19.6990196,20.6093037 18.4429193,20.5665639 17.2852822,20.3562388 C15.6280976,20.0548104 14.3614278,19.5638645 13.4902794,18.9441367 C12.5139924,18.2496142 12.0166702,17.3908806 12.0005378,16.4455427 C11.939346,12.791848 17.1111637,11.0822541 21.7439375,11.0029604 C23.2158779,10.9776539 24.6355271,11.1148713 25.8098529,11.4039277 C27.0314633,11.7047937 28.0055251,12.1771815 28.5334433,12.8126556 C29.2950027,13.7293128 29.191533,14.899035 27.7201489,16.2762704 C27.1966811,16.7660915 26.7872525,16.0788798 27.1777673,15.7150287 C28.2781067,14.6909594 28.4166226,13.8912744 27.9387705,13.3159735 C27.5226664,12.814905 26.6932397,12.4274346 25.6279465,12.1653718 C24.5153687,11.8914994 23.1635867,11.7615927 21.7561759,11.7857745 C17.4883276,11.8588821 12.7220445,13.3210348 12.7743356,16.433733 C12.7860177,17.1186953 13.1737511,17.7609178 13.9364231,18.303039 C14.7202341,18.8603441 15.8823216,19.3068631 17.4221292,19.5863592 C18.6075808,19.8017455 19.9031776,19.8298638 21.1008676,19.6802744 C21.7628513,17.4735485 22.7458138,16.2520886 23.6308694,15.7386481 C24.0797945,15.4782724 24.5153687,15.3877314 24.8919763,15.4355326 C25.3064115,15.4878327 25.6468603,15.703219 25.8621441,16.044013 C26.1669904,16.5259611 26.2014803,17.2559127 25.792608,18.1005871 C25.3014049,19.1156585 24.0686687,19.8236778 22.5449935,20.2088988 C22.2746371,20.2769451 21.9942675,20.3354313 21.7066662,20.3837948 C21.6304546,20.6790371 21.5592496,20.9928376 21.4947201,21.3246338 L21.5208657,21.3201349 C23.3977843,21.0170194 25.3364511,21.117683 26.7249481,21.7554065 C27.2417405,21.9921627 26.7794644,22.6377594 26.372261,22.4538656 Z" id="Shape" stroke="#FFFFFF" stroke-width="0.5" fill="#FFFFFF"></path>
            </g>
        </g>
    </g>
</svg>