<?xml version="1.0" encoding="UTF-8"?>
<svg width="128px" height="128px" viewBox="0 0 128 128" version="1.1" xmlns="http://www.w3.org/2000/svg" xmlns:xlink="http://www.w3.org/1999/xlink">
    <title>logo</title>
    <g id="Page-1" stroke="none" stroke-width="1" fill="none" fill-rule="evenodd">
        <g id="logo" fill-rule="nonzero">
            <g id="Group">
                <polygon id="Path" fill="#0B22E8" points="0 0 0 128 128 128 128 0"></polygon>
                <g id="tg" transform="translate(36.864, 33.792)" fill="#FFFFFF">
                    <polygon id="Path" points="12.3749248 45.4606611 4.03903794 45.4606611 4.03903794 18.992072 0 18.992072 0 12.2030508 4.03903794 12.2030508 4.03903794 0 12.3749248 0 12.3749248 12.2030508 18.992072 12.2030508 18.992072 18.992072 12.3749248 18.992072"></polygon>
                    <path d="M53.4528,42.5388039 C53.4528,54.1689415 48.0387704,59.9840103 37.2107113,59.9840103 C32.3982405,59.9840103 28.3305569,58.6806328 25.0076605,56.0738778 C21.684764,53.4671228 20.0233158,50.0726122 20.0233158,45.890346 L28.8748244,45.890346 C28.8748244,47.5517942 29.7055486,49.1845968 31.3669968,50.7887537 C33.028445,52.3929106 34.8904129,53.1949891 36.9529003,53.1949891 C42.3955756,53.1949891 45.1169132,49.9293839 45.1169132,43.3981736 L45.1169132,41.2497492 C42.7679691,44.2288977 39.2015846,45.718472 34.4177595,45.718472 C29.6339344,45.718472 25.8813531,44.0570238 23.1600154,40.7341273 C20.4386778,37.4112309 19.078009,33.3435473 19.078009,28.5310765 C19.078009,23.3175666 20.5389376,18.9634264 23.4607949,15.4686559 C26.3826521,11.9738855 30.1782019,10.2265003 34.8474444,10.2265003 C39.5166868,10.2265003 42.9398431,11.6874289 45.1169132,14.6092862 L45.1169132,11.343681 L53.4528,11.343681 L53.4528,42.5388039 Z M46.3200309,27.7576437 C46.3200309,24.6639125 45.4606611,22.1717402 43.7419215,20.2811267 C42.023182,18.3905132 39.7601749,17.4452064 36.9529003,17.4452064 C34.1456257,17.4452064 31.8682958,18.4764502 30.1209106,20.5389376 C28.3735254,22.6014251 27.4998328,25.2081801 27.4998328,28.3592026 C27.4998328,35.1195781 30.6508553,38.4997659 36.9529003,38.4997659 C39.8174662,38.4997659 42.0947961,37.482845 43.78489,35.4490032 C45.4749839,33.4151614 46.3200309,30.8513749 46.3200309,27.7576437 Z" id="Shape"></path>
                </g>
            </g>
        </g>
    </g>
</svg>