<?xml version="1.0" encoding="UTF-8"?>
<svg width="1051px" height="74px" viewBox="0 0 1051 74" version="1.1" xmlns="http://www.w3.org/2000/svg" xmlns:xlink="http://www.w3.org/1999/xlink">
    <title>STUDIO GAHISSY Copy</title>
    <g id="Page-1" stroke="none" stroke-width="1" fill="none" fill-rule="evenodd">
        <g id="t" transform="translate(-120, -282)" fill="#000000" fill-rule="nonzero">
            <g id="STUDIO-GAHISSY-Copy" transform="translate(120, 282)">
                <path d="M50,53.5213904 C50,59.7210339 47.6530612,64.7005348 42.9591837,68.459893 C38.1972789,72.1532977 32.414966,74 25.6122449,74 C19.5578231,74 14.2176871,72.285205 9.59183673,68.855615 C4.96598639,65.426025 1.76870748,60.7433155 0,54.8074866 L8.97959184,51.2459893 C9.59183673,53.3565062 10.4421769,55.2691622 11.5306122,56.9839572 C12.6190476,58.6987522 13.8945578,60.166221 15.3571429,61.3863636 C16.8197279,62.6065062 18.4353741,63.5628342 20.2040816,64.2553476 C21.9727891,64.947861 23.8435374,65.2941176 25.8163265,65.2941176 C30.1020408,65.2941176 33.6054422,64.2223708 36.3265306,62.078877 C39.047619,59.9353832 40.4081633,57.0828877 40.4081633,53.5213904 C40.4081633,50.5534759 39.2857143,48.0142602 37.0408163,45.9037433 C34.9319728,43.85918 30.9863946,41.8805704 25.2040816,39.9679144 C19.3537415,37.9233512 15.7142857,36.5383244 14.2857143,35.8128342 C6.53061224,31.9875223 2.65306122,26.3484848 2.65306122,18.8957219 C2.65306122,13.6853832 4.79591837,9.23351159 9.08163265,5.54010695 C13.4353741,1.84670232 18.7755102,0 25.1020408,0 C30.6802721,0 35.5102041,1.38502674 39.5918367,4.15508021 C43.6734694,6.85918004 46.3945578,10.2557932 47.755102,14.3449198 L38.9795918,17.9064171 C38.1632653,15.2682709 36.547619,13.0753119 34.1326531,11.3275401 C31.7176871,9.57976827 28.7755102,8.70588235 25.3061224,8.70588235 C21.6326531,8.70588235 18.537415,9.69518717 16.0204082,11.6737968 C13.5034014,13.5204991 12.244898,15.9278075 12.244898,18.8957219 C12.244898,21.3360071 13.2312925,23.4465241 15.2040816,25.2272727 C17.3809524,27.0080214 22.1088435,29.1185383 29.3877551,31.5588235 C36.8027211,33.9991087 42.0918367,36.9835116 45.255102,40.5120321 C48.4183673,44.0405526 50,48.3770053 50,53.5213904 Z" id="Path"></path>
                <polygon id="Path" points="105.674797 9.72625698 105.674797 72 96.3252033 72 96.3252033 9.72625698 76 9.72625698 76 1 126 1 126 9.72625698"></polygon>
                <path d="M182,74 C173.916981,74 167.396226,71.442623 162.437736,66.3278689 C157.479245,61.2786885 155,54.5901639 155,46.2622951 L155,2 L164.373585,2 L164.373585,46.6557377 C164.373585,52.4262295 165.935849,56.9836066 169.060377,60.3278689 C172.184906,63.6721311 176.498113,65.3442623 182,65.3442623 C187.501887,65.3442623 191.815094,63.6721311 194.939623,60.3278689 C198.064151,56.9836066 199.626415,52.4262295 199.626415,46.6557377 L199.626415,2 L209,2 L209,46.2622951 C209,54.7868852 206.554717,61.5409836 201.664151,66.5245902 C196.773585,71.5081967 190.218868,74 182,74 Z" id="Path"></path>
                <path d="M242,72 L242,1 L264.57732,1 C275.848797,1 284.90378,4.27234637 291.742268,10.8170391 C298.580756,17.3617318 302,25.9227188 302,36.5 C302,47.1433892 298.580756,55.7209032 291.742268,62.2325419 C284.90378,68.7441806 275.848797,72 264.57732,72 L242,72 Z M251.484536,9.72625698 L251.484536,63.273743 L264.57732,63.273743 C273.168385,63.273743 279.938144,60.9103818 284.886598,56.1836592 C289.835052,51.4569367 292.309278,44.8957169 292.309278,36.5 C292.309278,28.1703911 289.835052,21.6256983 284.886598,16.8659218 C279.938144,12.1061453 273.168385,9.72625698 264.57732,9.72625698 L251.484536,9.72625698 Z" id="Shape"></path>
                <polygon id="Path" points="344 72 334 72 334 1 344 1"></polygon>
                <path d="M449,37 C449,47.486631 445.399457,56.258467 438.19837,63.315508 C430.929348,70.4385027 422.029891,74 411.5,74 C400.902174,74 392.002717,70.4385027 384.80163,63.315508 C377.600543,56.258467 374,47.486631 374,37 C374,26.513369 377.600543,17.741533 384.80163,10.684492 C392.002717,3.56149733 400.902174,0 411.5,0 C422.097826,0 430.997283,3.59447415 438.19837,10.7834225 C445.399457,17.8404635 449,26.5793226 449,37 Z M383.578804,37 C383.578804,45.1782531 386.228261,51.9385027 391.527174,57.2807487 C396.894022,62.6229947 403.55163,65.2941176 411.5,65.2941176 C419.44837,65.2941176 426.072011,62.6229947 431.370924,57.2807487 C436.737772,52.0044563 439.421196,45.2442068 439.421196,37 C439.421196,28.7557932 436.737772,21.9955437 431.370924,16.7192513 C426.072011,11.3770053 419.44837,8.70588235 411.5,8.70588235 C403.55163,8.70588235 396.894022,11.3770053 391.527174,16.7192513 C386.228261,22.0614973 383.578804,28.8217469 383.578804,37 Z" id="Shape"></path>
                <path d="M592,39.868984 C592,49.7620321 588.967772,57.6434938 582.903315,63.513369 C576.089319,70.5044563 567.128913,74 556.022099,74 C545.392265,74 536.39779,70.4385027 529.038674,63.315508 C521.679558,56.1925134 518,47.4206774 518,37 C518,26.5793226 521.679558,17.8074866 529.038674,10.684492 C536.39779,3.56149733 545.392265,0 556.022099,0 C561.405157,0 566.481584,0.923351159 571.251381,2.77005348 C576.021179,4.61675579 579.939227,7.22192513 583.005525,10.5855615 L576.259669,17.1149733 C574.01105,14.4768271 571.098066,12.4157754 567.520718,10.9318182 C563.94337,9.44786096 560.110497,8.70588235 556.022099,8.70588235 C548.049724,8.70588235 541.303867,11.3770053 535.78453,16.7192513 C530.333333,22.127451 527.607735,28.8877005 527.607735,37 C527.607735,45.1122995 530.333333,51.872549 535.78453,57.2807487 C541.303867,62.6229947 548.049724,65.2941176 556.022099,65.2941176 C563.313076,65.2941176 569.377532,63.315508 574.21547,59.3582888 C579.053407,55.4010695 581.847145,49.959893 582.596685,43.0347594 L556.022099,43.0347594 L556.022099,34.526738 L591.48895,34.526738 C591.82965,36.3734403 592,38.1541889 592,39.868984 Z" id="Path"></path>
                <path d="M650.298137,12.2053073 L638.48913,44.2346369 L662.51087,44.2346369 L650.701863,12.2053073 L650.298137,12.2053073 Z M628.295031,72 L618,72 L645.251553,1 L655.748447,1 L683,72 L672.704969,72 L665.740683,52.7625698 L635.360248,52.7625698 L628.295031,72 Z" id="Shape"></path>
                <polygon id="Path" points="722.335793 72 713 72 713 1 722.335793 1 722.335793 31.4427374 758.664207 31.4427374 758.664207 1 768 1 768 72 758.664207 72 758.664207 39.9706704 722.335793 39.9706704"></polygon>
                <polygon id="Path" points="813 72 803 72 803 1 813 1"></polygon>
                <path d="M893,53.5213904 C893,59.7210339 890.653061,64.7005348 885.959184,68.459893 C881.197279,72.1532977 875.414966,74 868.612245,74 C862.557823,74 857.217687,72.285205 852.591837,68.855615 C847.965986,65.426025 844.768707,60.7433155 843,54.8074866 L851.979592,51.2459893 C852.591837,53.3565062 853.442177,55.2691622 854.530612,56.9839572 C855.619048,58.6987522 856.894558,60.166221 858.357143,61.3863636 C859.819728,62.6065062 861.435374,63.5628342 863.204082,64.2553476 C864.972789,64.947861 866.843537,65.2941176 868.816327,65.2941176 C873.102041,65.2941176 876.605442,64.2223708 879.326531,62.078877 C882.047619,59.9353832 883.408163,57.0828877 883.408163,53.5213904 C883.408163,50.5534759 882.285714,48.0142602 880.040816,45.9037433 C877.931973,43.85918 873.986395,41.8805704 868.204082,39.9679144 C862.353741,37.9233512 858.714286,36.5383244 857.285714,35.8128342 C849.530612,31.9875223 845.653061,26.3484848 845.653061,18.8957219 C845.653061,13.6853832 847.795918,9.23351159 852.081633,5.54010695 C856.435374,1.84670232 861.77551,0 868.102041,0 C873.680272,0 878.510204,1.38502674 882.591837,4.15508021 C886.673469,6.85918004 889.394558,10.2557932 890.755102,14.3449198 L881.979592,17.9064171 C881.163265,15.2682709 879.547619,13.0753119 877.132653,11.3275401 C874.717687,9.57976827 871.77551,8.70588235 868.306122,8.70588235 C864.632653,8.70588235 861.537415,9.69518717 859.020408,11.6737968 C856.503401,13.5204991 855.244898,15.9278075 855.244898,18.8957219 C855.244898,21.3360071 856.231293,23.4465241 858.204082,25.2272727 C860.380952,27.0080214 865.108844,29.1185383 872.387755,31.5588235 C879.802721,33.9991087 885.091837,36.9835116 888.255102,40.5120321 C891.418367,44.0405526 893,48.3770053 893,53.5213904 Z" id="Path"></path>
                <path d="M970,53.5213904 C970,59.7210339 967.653061,64.7005348 962.959184,68.459893 C958.197279,72.1532977 952.414966,74 945.612245,74 C939.557823,74 934.217687,72.285205 929.591837,68.855615 C924.965986,65.426025 921.768707,60.7433155 920,54.8074866 L928.979592,51.2459893 C929.591837,53.3565062 930.442177,55.2691622 931.530612,56.9839572 C932.619048,58.6987522 933.894558,60.166221 935.357143,61.3863636 C936.819728,62.6065062 938.435374,63.5628342 940.204082,64.2553476 C941.972789,64.947861 943.843537,65.2941176 945.816327,65.2941176 C950.102041,65.2941176 953.605442,64.2223708 956.326531,62.078877 C959.047619,59.9353832 960.408163,57.0828877 960.408163,53.5213904 C960.408163,50.5534759 959.285714,48.0142602 957.040816,45.9037433 C954.931973,43.85918 950.986395,41.8805704 945.204082,39.9679144 C939.353741,37.9233512 935.714286,36.5383244 934.285714,35.8128342 C926.530612,31.9875223 922.653061,26.3484848 922.653061,18.8957219 C922.653061,13.6853832 924.795918,9.23351159 929.081633,5.54010695 C933.435374,1.84670232 938.77551,0 945.102041,0 C950.680272,0 955.510204,1.38502674 959.591837,4.15508021 C963.673469,6.85918004 966.394558,10.2557932 967.755102,14.3449198 L958.979592,17.9064171 C958.163265,15.2682709 956.547619,13.0753119 954.132653,11.3275401 C951.717687,9.57976827 948.77551,8.70588235 945.306122,8.70588235 C941.632653,8.70588235 938.537415,9.69518717 936.020408,11.6737968 C933.503401,13.5204991 932.244898,15.9278075 932.244898,18.8957219 C932.244898,21.3360071 933.231293,23.4465241 935.204082,25.2272727 C937.380952,27.0080214 942.108844,29.1185383 949.387755,31.5588235 C956.802721,33.9991087 962.091837,36.9835116 965.255102,40.5120321 C968.418367,44.0405526 970,48.3770053 970,53.5213904 Z" id="Path"></path>
                <polygon id="Path" points="1026.88421 38.9790503 1026.88421 72 1017.52281 72 1017.52281 38.9790503 993 1 1003.98947 1 1022 29.8561453 1022.40702 29.8561453 1040.01053 1 1051 1"></polygon>
            </g>
        </g>
    </g>
</svg>